<?xml version="1.0" encoding="utf-8"?>
<svg xmlns="http://www.w3.org/2000/svg" version="1.1" width="1920" height="1080">
<title>Image done by a procedural generator for Rorschach's tests.</title>
<desc>Symetrical image.</desc>
<circle cx="1616" cy="1021" r="35" fill="rgb(46%, 22%, 70%)" /> <circle cx="304" cy="1021" r="35" fill="rgb(46%, 22%, 70%)" />
<circle cx="1639" cy="357" r="65" fill="rgb(60%, 28%, 38%)" /> <circle cx="281" cy="357" r="65" fill="rgb(60%, 28%, 38%)" />
<circle cx="1806" cy="233" r="61" fill="rgb(87%, 14%, 38%)" /> <circle cx="114" cy="233" r="61" fill="rgb(87%, 14%, 38%)" />
<circle cx="1583" cy="150" r="60" fill="rgb(17%, 65%, 83%)" /> <circle cx="337" cy="150" r="60" fill="rgb(17%, 65%, 83%)" />
<circle cx="1529" cy="925" r="31" fill="rgb(1%, 70%, 61%)" /> <circle cx="391" cy="925" r="31" fill="rgb(1%, 70%, 61%)" />
<circle cx="1142" cy="205" r="56" fill="rgb(34%, 66%, 26%)" /> <circle cx="778" cy="205" r="56" fill="rgb(34%, 66%, 26%)" />
<circle cx="1222" cy="850" r="86" fill="rgb(16%, 60%, 62%)" /> <circle cx="698" cy="850" r="86" fill="rgb(16%, 60%, 62%)" />
<circle cx="1025" cy="465" r="63" fill="rgb(63%, 8%, 72%)" /> <circle cx="895" cy="465" r="63" fill="rgb(63%, 8%, 72%)" />
<circle cx="1259" cy="361" r="24" fill="rgb(8%, 14%, 84%)" /> <circle cx="661" cy="361" r="24" fill="rgb(8%, 14%, 84%)" />
<circle cx="1650" cy="82" r="50" fill="rgb(70%, 86%, 67%)" /> <circle cx="270" cy="82" r="50" fill="rgb(70%, 86%, 67%)" />
<circle cx="1829" cy="930" r="92" fill="rgb(35%, 76%, 6%)" /> <circle cx="91" cy="930" r="92" fill="rgb(35%, 76%, 6%)" />
<circle cx="1179" cy="84" r="11" fill="rgb(42%, 1%, 18%)" /> <circle cx="741" cy="84" r="11" fill="rgb(42%, 1%, 18%)" />
<circle cx="1554" cy="551" r="44" fill="rgb(14%, 71%, 99%)" /> <circle cx="366" cy="551" r="44" fill="rgb(14%, 71%, 99%)" />
<circle cx="1304" cy="668" r="49" fill="rgb(57%, 81%, 58%)" /> <circle cx="616" cy="668" r="49" fill="rgb(57%, 81%, 58%)" />
<circle cx="1279" cy="180" r="100" fill="rgb(39%, 47%, 81%)" /> <circle cx="641" cy="180" r="100" fill="rgb(39%, 47%, 81%)" />
<circle cx="1376" cy="670" r="28" fill="rgb(98%, 66%, 52%)" /> <circle cx="544" cy="670" r="28" fill="rgb(98%, 66%, 52%)" />
<circle cx="1362" cy="577" r="42" fill="rgb(62%, 21%, 38%)" /> <circle cx="558" cy="577" r="42" fill="rgb(62%, 21%, 38%)" />
<circle cx="1018" cy="123" r="52" fill="rgb(72%, 44%, 70%)" /> <circle cx="902" cy="123" r="52" fill="rgb(72%, 44%, 70%)" />
<circle cx="1369" cy="604" r="100" fill="rgb(16%, 40%, 29%)" /> <circle cx="551" cy="604" r="100" fill="rgb(16%, 40%, 29%)" />
<circle cx="1624" cy="665" r="59" fill="rgb(22%, 73%, 54%)" /> <circle cx="296" cy="665" r="59" fill="rgb(22%, 73%, 54%)" />
<circle cx="1453" cy="120" r="90" fill="rgb(79%, 81%, 51%)" /> <circle cx="467" cy="120" r="90" fill="rgb(79%, 81%, 51%)" />
<circle cx="1341" cy="357" r="83" fill="rgb(72%, 99%, 99%)" /> <circle cx="579" cy="357" r="83" fill="rgb(72%, 99%, 99%)" />
<circle cx="1208" cy="888" r="82" fill="rgb(9%, 4%, 74%)" /> <circle cx="712" cy="888" r="82" fill="rgb(9%, 4%, 74%)" />
<circle cx="1890" cy="656" r="62" fill="rgb(27%, 43%, 97%)" /> <circle cx="30" cy="656" r="62" fill="rgb(27%, 43%, 97%)" />
<circle cx="1874" cy="101" r="36" fill="rgb(63%, 44%, 56%)" /> <circle cx="46" cy="101" r="36" fill="rgb(63%, 44%, 56%)" />
<circle cx="1875" cy="701" r="45" fill="rgb(2%, 30%, 21%)" /> <circle cx="45" cy="701" r="45" fill="rgb(2%, 30%, 21%)" />
<circle cx="1291" cy="724" r="64" fill="rgb(31%, 37%, 10%)" /> <circle cx="629" cy="724" r="64" fill="rgb(31%, 37%, 10%)" />
<circle cx="1288" cy="659" r="99" fill="rgb(60%, 9%, 98%)" /> <circle cx="632" cy="659" r="99" fill="rgb(60%, 9%, 98%)" />
<circle cx="1252" cy="950" r="31" fill="rgb(43%, 69%, 69%)" /> <circle cx="668" cy="950" r="31" fill="rgb(43%, 69%, 69%)" />
<circle cx="1398" cy="613" r="96" fill="rgb(72%, 88%, 35%)" /> <circle cx="522" cy="613" r="96" fill="rgb(72%, 88%, 35%)" />
<circle cx="1318" cy="819" r="40" fill="rgb(20%, 59%, 17%)" /> <circle cx="602" cy="819" r="40" fill="rgb(20%, 59%, 17%)" />
<circle cx="1432" cy="490" r="36" fill="rgb(5%, 43%, 68%)" /> <circle cx="488" cy="490" r="36" fill="rgb(5%, 43%, 68%)" />
<circle cx="1073" cy="889" r="73" fill="rgb(62%, 38%, 30%)" /> <circle cx="847" cy="889" r="73" fill="rgb(62%, 38%, 30%)" />
<circle cx="1238" cy="170" r="76" fill="rgb(38%, 67%, 92%)" /> <circle cx="682" cy="170" r="76" fill="rgb(38%, 67%, 92%)" />
<circle cx="1878" cy="108" r="75" fill="rgb(51%, 83%, 10%)" /> <circle cx="42" cy="108" r="75" fill="rgb(51%, 83%, 10%)" />
<circle cx="1537" cy="348" r="73" fill="rgb(26%, 36%, 27%)" /> <circle cx="383" cy="348" r="73" fill="rgb(26%, 36%, 27%)" />
<circle cx="1441" cy="901" r="45" fill="rgb(74%, 35%, 35%)" /> <circle cx="479" cy="901" r="45" fill="rgb(74%, 35%, 35%)" />
<circle cx="1753" cy="104" r="18" fill="rgb(15%, 65%, 3%)" /> <circle cx="167" cy="104" r="18" fill="rgb(15%, 65%, 3%)" />
<circle cx="1735" cy="1068" r="84" fill="rgb(21%, 16%, 98%)" /> <circle cx="185" cy="1068" r="84" fill="rgb(21%, 16%, 98%)" />
<circle cx="1191" cy="1018" r="63" fill="rgb(35%, 79%, 41%)" /> <circle cx="729" cy="1018" r="63" fill="rgb(35%, 79%, 41%)" />
<circle cx="1904" cy="712" r="62" fill="rgb(66%, 44%, 94%)" /> <circle cx="16" cy="712" r="62" fill="rgb(66%, 44%, 94%)" />
<circle cx="1263" cy="446" r="29" fill="rgb(37%, 14%, 12%)" /> <circle cx="657" cy="446" r="29" fill="rgb(37%, 14%, 12%)" />

</svg>