<?xml version="1.0" encoding="utf-8"?>
<svg xmlns="http://www.w3.org/2000/svg" version="1.1" width="1920" height="1080">
<title>Image done by a procedural generator for Rorschach's tests.</title>
<desc>Symetrical image.</desc>
<circle cx="993" cy="936" r="9" fill="rgb(13%, 65%, 32%)" opacity=".83" /> <circle cx="927" cy="936" r="9" fill="rgb(13%, 65%, 32%)" opacity=".83" />
<circle cx="1113" cy="47" r="11" fill="rgb(7%, 45%, 48%)" opacity=".66" /> <circle cx="807" cy="47" r="11" fill="rgb(7%, 45%, 48%)" opacity=".66" />
<circle cx="1213" cy="314" r="27" fill="rgb(7%, 5%, 81%)" opacity=".17" /> <circle cx="707" cy="314" r="27" fill="rgb(7%, 5%, 81%)" opacity=".17" />
<circle cx="1219" cy="773" r="23" fill="rgb(64%, 37%, 24%)" opacity=".41" /> <circle cx="701" cy="773" r="23" fill="rgb(64%, 37%, 24%)" opacity=".41" />
<circle cx="1357" cy="361" r="13" fill="rgb(34%, 45%, 99%)" opacity=".48" /> <circle cx="563" cy="361" r="13" fill="rgb(34%, 45%, 99%)" opacity=".48" />
<circle cx="1720" cy="452" r="23" fill="rgb(38%, 18%, 7%)" opacity=".97" /> <circle cx="200" cy="452" r="23" fill="rgb(38%, 18%, 7%)" opacity=".97" />
<circle cx="1033" cy="781" r="5" fill="rgb(83%, 35%, 92%)" opacity=".42" /> <circle cx="887" cy="781" r="5" fill="rgb(83%, 35%, 92%)" opacity=".42" />
<circle cx="1178" cy="583" r="38" fill="rgb(21%, 49%, 37%)" opacity=".37" /> <circle cx="742" cy="583" r="38" fill="rgb(21%, 49%, 37%)" opacity=".37" />
<circle cx="1505" cy="640" r="30" fill="rgb(26%, 36%, 98%)" opacity=".13" /> <circle cx="415" cy="640" r="30" fill="rgb(26%, 36%, 98%)" opacity=".13" />
<circle cx="1179" cy="269" r="3" fill="rgb(96%, 32%, 96%)" opacity=".34" /> <circle cx="741" cy="269" r="3" fill="rgb(96%, 32%, 96%)" opacity=".34" />
<circle cx="1900" cy="737" r="19" fill="rgb(18%, 62%, 98%)" opacity=".53" /> <circle cx="20" cy="737" r="19" fill="rgb(18%, 62%, 98%)" opacity=".53" />
<circle cx="987" cy="802" r="11" fill="rgb(89%, 16%, 7%)" opacity=".63" /> <circle cx="933" cy="802" r="11" fill="rgb(89%, 16%, 7%)" opacity=".63" />
<circle cx="1504" cy="36" r="36" fill="rgb(5%, 9%, 31%)" opacity=".83" /> <circle cx="416" cy="36" r="36" fill="rgb(5%, 9%, 31%)" opacity=".83" />
<circle cx="1404" cy="194" r="26" fill="rgb(79%, 30%, 61%)" opacity=".75" /> <circle cx="516" cy="194" r="26" fill="rgb(79%, 30%, 61%)" opacity=".75" />
<circle cx="1520" cy="966" r="31" fill="rgb(64%, 65%, 44%)" opacity=".34" /> <circle cx="400" cy="966" r="31" fill="rgb(64%, 65%, 44%)" opacity=".34" />
<circle cx="1318" cy="51" r="19" fill="rgb(81%, 33%, 87%)" opacity=".71" /> <circle cx="602" cy="51" r="19" fill="rgb(81%, 33%, 87%)" opacity=".71" />
<circle cx="1259" cy="447" r="4" fill="rgb(19%, 43%, 86%)" opacity=".24" /> <circle cx="661" cy="447" r="4" fill="rgb(19%, 43%, 86%)" opacity=".24" />
<circle cx="1082" cy="639" r="36" fill="rgb(2%, 50%, 56%)" opacity=".82" /> <circle cx="838" cy="639" r="36" fill="rgb(2%, 50%, 56%)" opacity=".82" />
<circle cx="1878" cy="456" r="33" fill="rgb(42%, 28%, 19%)" opacity=".59" /> <circle cx="42" cy="456" r="33" fill="rgb(42%, 28%, 19%)" opacity=".59" />
<circle cx="1663" cy="869" r="21" fill="rgb(77%, 58%, 85%)" opacity=".59" /> <circle cx="257" cy="869" r="21" fill="rgb(77%, 58%, 85%)" opacity=".59" />
<circle cx="1721" cy="813" r="6" fill="rgb(44%, 70%, 68%)" opacity=".16" /> <circle cx="199" cy="813" r="6" fill="rgb(44%, 70%, 68%)" opacity=".16" />
<circle cx="1771" cy="326" r="22" fill="rgb(70%, 24%, 52%)" opacity=".72" /> <circle cx="149" cy="326" r="22" fill="rgb(70%, 24%, 52%)" opacity=".72" />
<circle cx="1692" cy="178" r="10" fill="rgb(7%, 79%, 64%)" opacity=".1" /> <circle cx="228" cy="178" r="10" fill="rgb(7%, 79%, 64%)" opacity=".1" />
<circle cx="1137" cy="150" r="18" fill="rgb(4%, 50%, 58%)" opacity=".82" /> <circle cx="783" cy="150" r="18" fill="rgb(4%, 50%, 58%)" opacity=".82" />
<circle cx="1598" cy="520" r="29" fill="rgb(3%, 67%, 23%)" opacity=".0" /> <circle cx="322" cy="520" r="29" fill="rgb(3%, 67%, 23%)" opacity=".0" />
<circle cx="1595" cy="400" r="30" fill="rgb(3%, 97%, 60%)" opacity=".73" /> <circle cx="325" cy="400" r="30" fill="rgb(3%, 97%, 60%)" opacity=".73" />
<circle cx="1531" cy="591" r="21" fill="rgb(0%, 74%, 52%)" opacity=".59" /> <circle cx="389" cy="591" r="21" fill="rgb(0%, 74%, 52%)" opacity=".59" />
<circle cx="1011" cy="192" r="2" fill="rgb(12%, 51%, 73%)" opacity=".68" /> <circle cx="909" cy="192" r="2" fill="rgb(12%, 51%, 73%)" opacity=".68" />
<circle cx="1631" cy="693" r="40" fill="rgb(14%, 74%, 43%)" opacity=".69" /> <circle cx="289" cy="693" r="40" fill="rgb(14%, 74%, 43%)" opacity=".69" />
<circle cx="1911" cy="172" r="35" fill="rgb(30%, 61%, 37%)" opacity=".33" /> <circle cx="9" cy="172" r="35" fill="rgb(30%, 61%, 37%)" opacity=".33" />
<circle cx="1209" cy="592" r="30" fill="rgb(36%, 63%, 4%)" opacity=".36" /> <circle cx="711" cy="592" r="30" fill="rgb(36%, 63%, 4%)" opacity=".36" />
<circle cx="1095" cy="401" r="41" fill="rgb(90%, 24%, 8%)" opacity=".54" /> <circle cx="825" cy="401" r="41" fill="rgb(90%, 24%, 8%)" opacity=".54" />
<circle cx="1025" cy="394" r="42" fill="rgb(80%, 12%, 25%)" opacity=".94" /> <circle cx="895" cy="394" r="42" fill="rgb(80%, 12%, 25%)" opacity=".94" />
<circle cx="1016" cy="430" r="38" fill="rgb(31%, 87%, 85%)" opacity=".61" /> <circle cx="904" cy="430" r="38" fill="rgb(31%, 87%, 85%)" opacity=".61" />
<circle cx="1418" cy="252" r="13" fill="rgb(11%, 25%, 57%)" opacity=".48" /> <circle cx="502" cy="252" r="13" fill="rgb(11%, 25%, 57%)" opacity=".48" />
<circle cx="1806" cy="907" r="2" fill="rgb(25%, 21%, 84%)" opacity=".67" /> <circle cx="114" cy="907" r="2" fill="rgb(25%, 21%, 84%)" opacity=".67" />
<circle cx="1903" cy="489" r="21" fill="rgb(72%, 73%, 95%)" opacity=".5" /> <circle cx="17" cy="489" r="21" fill="rgb(72%, 73%, 95%)" opacity=".5" />
<circle cx="1123" cy="298" r="25" fill="rgb(23%, 41%, 67%)" opacity=".6" /> <circle cx="797" cy="298" r="25" fill="rgb(23%, 41%, 67%)" opacity=".6" />
<circle cx="1158" cy="532" r="17" fill="rgb(80%, 80%, 18%)" opacity=".44" /> <circle cx="762" cy="532" r="17" fill="rgb(80%, 80%, 18%)" opacity=".44" />
<circle cx="1203" cy="574" r="8" fill="rgb(45%, 89%, 80%)" opacity=".22" /> <circle cx="717" cy="574" r="8" fill="rgb(45%, 89%, 80%)" opacity=".22" />
<circle cx="1229" cy="671" r="15" fill="rgb(8%, 56%, 14%)" opacity=".33" /> <circle cx="691" cy="671" r="15" fill="rgb(8%, 56%, 14%)" opacity=".33" />
<circle cx="1367" cy="544" r="24" fill="rgb(66%, 82%, 89%)" opacity=".41" /> <circle cx="553" cy="544" r="24" fill="rgb(66%, 82%, 89%)" opacity=".41" />




</svg>